# xmcd
#
# Track frame offsets:
#	150
#	15522
#	28365
#	40923
#	54386
#	70290
#	83950
#	99409
#	112100
#	124588
#	138034
#	153880
#
# Disc length: 2232 seconds
#
# Revision: 1
# Processed by: cddbd v1.5.2PL0 Copyright (c) Steve Scherf et al.
# Submitted via: audiograbber 1.83.01
#
DISCID=9708b60c
DTITLE=HOLLY DUNN - CB20503
DYEAR=1900
DGENRE=KARAOKE
TTITLE0=HOLLY DUNN - DADDY'S HANDS (WVOCAL)
TTITLE1=HOLLY DUNN - ARE YOU EVER GONNA LOVE ME (WVOCAL)
TTITLE2=HOLLY DUNN - THERE GOES MY HEART AGAIN (WVOCAL)
TTITLE3=HOLLY DUNN - YOU REALLY HAD ME GOING (WVOCAL)
TTITLE4=HOLLY DUNN - ONLY WHEN I LOVE (WVOCAL)
TTITLE5=HOLLY DUNN - THAT'S WHAT YOUR LOVE DOES TO ME (WVOCAL)
TTITLE6=HOLLY DUNN - DADDY'S HANDS
TTITLE7=HOLLY DUNN - ARE YOU EVER GONNA LOVE ME
TTITLE8=HOLLY DUNN - THERE GOES MY HEART AGAIN
TTITLE9=HOLLY DUNN - YOU REALLY HAD ME GOING
TTITLE10=HOLLY DUNN - ONLY WHEN I LOVE
TTITLE11=HOLLY DUNN - THAT'S WHAT YOUR LOVE DOES TO ME
EXTD=
EXTT0=
EXTT1=
EXTT2=
EXTT3=
EXTT4=
EXTT5=
EXTT6=
EXTT7=
EXTT8=
EXTT9=
EXTT10=
EXTT11=
PLAYORDER=
